<mxfile host="app.diagrams.net" agent="Mozilla/5.0 (Windows NT 10.0; Win64; x64) AppleWebKit/537.36 (KHTML, like Gecko) Chrome/129.0.0.0 Safari/537.36 Edg/129.0.0.0" version="24.7.17">
  <diagram name="PÃ¡gina-1" id="4ogbuY2WXQBbzz6w4XQf">
    <mxGraphModel dx="1965" dy="706" grid="1" gridSize="10" guides="1" tooltips="1" connect="1" arrows="1" fold="1" page="1" pageScale="1" pageWidth="1169" pageHeight="827" math="0" shadow="0">
      <root>
        <mxCell id="0" />
        <mxCell id="1" parent="0" />
        <mxCell id="Ca4Y1HuICi13Lwhwx1Ua-1" value="cloud" style="ellipse;shape=cloud;whiteSpace=wrap;html=1;" vertex="1" parent="1">
          <mxGeometry x="420" y="80" width="120" height="80" as="geometry" />
        </mxCell>
        <mxCell id="Ca4Y1HuICi13Lwhwx1Ua-2" value="" style="shape=link;html=1;rounded=0;" edge="1" parent="1">
          <mxGeometry width="100" relative="1" as="geometry">
            <mxPoint x="100" y="560" as="sourcePoint" />
            <mxPoint x="740" y="560" as="targetPoint" />
          </mxGeometry>
        </mxCell>
        <mxCell id="Ca4Y1HuICi13Lwhwx1Ua-3" value="Inyeccion PLC Beckhoff" style="whiteSpace=wrap;html=1;aspect=fixed;" vertex="1" parent="1">
          <mxGeometry x="129.83" y="620" width="100" height="100" as="geometry" />
        </mxCell>
        <mxCell id="Ca4Y1HuICi13Lwhwx1Ua-4" value="Textil PLC Boch Rexroth" style="whiteSpace=wrap;html=1;aspect=fixed;" vertex="1" parent="1">
          <mxGeometry x="260" y="620" width="100" height="100" as="geometry" />
        </mxCell>
        <mxCell id="Ca4Y1HuICi13Lwhwx1Ua-5" value="Empaquetamiento PLC Siemens" style="whiteSpace=wrap;html=1;aspect=fixed;" vertex="1" parent="1">
          <mxGeometry x="380" y="620" width="100" height="100" as="geometry" />
        </mxCell>
        <mxCell id="Ca4Y1HuICi13Lwhwx1Ua-6" value="Logistica PLC Allen-Bradley" style="whiteSpace=wrap;html=1;aspect=fixed;" vertex="1" parent="1">
          <mxGeometry x="500" y="620" width="100" height="100" as="geometry" />
        </mxCell>
        <mxCell id="Ca4Y1HuICi13Lwhwx1Ua-7" value="Emsambaldora PLC Omron" style="whiteSpace=wrap;html=1;aspect=fixed;" vertex="1" parent="1">
          <mxGeometry x="620" y="620" width="100" height="100" as="geometry" />
        </mxCell>
        <mxCell id="Ca4Y1HuICi13Lwhwx1Ua-8" value="Gateway" style="rounded=0;whiteSpace=wrap;html=1;" vertex="1" parent="1">
          <mxGeometry x="330" y="450" width="120" height="60" as="geometry" />
        </mxCell>
        <mxCell id="Ca4Y1HuICi13Lwhwx1Ua-9" value="Router" style="rounded=0;whiteSpace=wrap;html=1;" vertex="1" parent="1">
          <mxGeometry x="330" y="230" width="120" height="60" as="geometry" />
        </mxCell>
        <mxCell id="Ca4Y1HuICi13Lwhwx1Ua-10" value="" style="shape=flexArrow;endArrow=classic;startArrow=classic;html=1;rounded=0;exitX=0.5;exitY=0;exitDx=0;exitDy=0;" edge="1" parent="1" source="Ca4Y1HuICi13Lwhwx1Ua-3">
          <mxGeometry width="100" height="100" relative="1" as="geometry">
            <mxPoint x="530" y="580" as="sourcePoint" />
            <mxPoint x="180" y="560" as="targetPoint" />
          </mxGeometry>
        </mxCell>
        <mxCell id="Ca4Y1HuICi13Lwhwx1Ua-11" value="" style="shape=flexArrow;endArrow=classic;startArrow=classic;html=1;rounded=0;exitX=0.5;exitY=0;exitDx=0;exitDy=0;" edge="1" parent="1">
          <mxGeometry width="100" height="100" relative="1" as="geometry">
            <mxPoint x="659.6600000000001" y="620" as="sourcePoint" />
            <mxPoint x="659.6600000000001" y="560" as="targetPoint" />
          </mxGeometry>
        </mxCell>
        <mxCell id="Ca4Y1HuICi13Lwhwx1Ua-12" value="" style="shape=flexArrow;endArrow=classic;startArrow=classic;html=1;rounded=0;exitX=0.5;exitY=0;exitDx=0;exitDy=0;" edge="1" parent="1">
          <mxGeometry width="100" height="100" relative="1" as="geometry">
            <mxPoint x="539.76" y="620" as="sourcePoint" />
            <mxPoint x="539.76" y="560" as="targetPoint" />
          </mxGeometry>
        </mxCell>
        <mxCell id="Ca4Y1HuICi13Lwhwx1Ua-13" value="" style="shape=flexArrow;endArrow=classic;startArrow=classic;html=1;rounded=0;exitX=0.5;exitY=0;exitDx=0;exitDy=0;" edge="1" parent="1">
          <mxGeometry width="100" height="100" relative="1" as="geometry">
            <mxPoint x="419.76" y="620" as="sourcePoint" />
            <mxPoint x="419.76" y="560" as="targetPoint" />
          </mxGeometry>
        </mxCell>
        <mxCell id="Ca4Y1HuICi13Lwhwx1Ua-14" value="" style="shape=flexArrow;endArrow=classic;startArrow=classic;html=1;rounded=0;exitX=0.5;exitY=0;exitDx=0;exitDy=0;" edge="1" parent="1">
          <mxGeometry width="100" height="100" relative="1" as="geometry">
            <mxPoint x="299.76" y="620" as="sourcePoint" />
            <mxPoint x="299.76" y="560" as="targetPoint" />
          </mxGeometry>
        </mxCell>
        <mxCell id="Ca4Y1HuICi13Lwhwx1Ua-16" value="" style="shape=flexArrow;endArrow=classic;startArrow=classic;html=1;rounded=0;" edge="1" parent="1">
          <mxGeometry width="100" height="100" relative="1" as="geometry">
            <mxPoint x="390" y="560" as="sourcePoint" />
            <mxPoint x="389.40999999999997" y="510" as="targetPoint" />
          </mxGeometry>
        </mxCell>
        <mxCell id="Ca4Y1HuICi13Lwhwx1Ua-17" value="" style="shape=flexArrow;endArrow=classic;startArrow=classic;html=1;rounded=0;" edge="1" parent="1">
          <mxGeometry width="100" height="100" relative="1" as="geometry">
            <mxPoint x="390.3" y="340" as="sourcePoint" />
            <mxPoint x="389.71" y="290" as="targetPoint" />
          </mxGeometry>
        </mxCell>
        <mxCell id="Ca4Y1HuICi13Lwhwx1Ua-18" value="" style="shape=flexArrow;endArrow=classic;startArrow=classic;html=1;rounded=0;entryX=0.094;entryY=0.682;entryDx=0;entryDy=0;entryPerimeter=0;" edge="1" parent="1" target="Ca4Y1HuICi13Lwhwx1Ua-1">
          <mxGeometry width="100" height="100" relative="1" as="geometry">
            <mxPoint x="390.3" y="230" as="sourcePoint" />
            <mxPoint x="389.71" y="180" as="targetPoint" />
          </mxGeometry>
        </mxCell>
        <mxCell id="Ca4Y1HuICi13Lwhwx1Ua-19" value="" style="whiteSpace=wrap;html=1;aspect=fixed;" vertex="1" parent="1">
          <mxGeometry x="180" y="160" width="40" height="40" as="geometry" />
        </mxCell>
        <mxCell id="Ca4Y1HuICi13Lwhwx1Ua-20" value="" style="shape=xor;whiteSpace=wrap;html=1;rotation=-150;" vertex="1" parent="1">
          <mxGeometry x="149.99999999999997" y="120" width="10" height="30" as="geometry" />
        </mxCell>
        <mxCell id="Ca4Y1HuICi13Lwhwx1Ua-21" value="" style="shape=xor;whiteSpace=wrap;html=1;rotation=-150;" vertex="1" parent="1">
          <mxGeometry x="162.5" y="120.67" width="10" height="40" as="geometry" />
        </mxCell>
        <mxCell id="Ca4Y1HuICi13Lwhwx1Ua-22" value="" style="shape=xor;whiteSpace=wrap;html=1;rotation=-150;" vertex="1" parent="1">
          <mxGeometry x="174.83" y="121.96" width="10" height="49.33" as="geometry" />
        </mxCell>
        <mxCell id="Ca4Y1HuICi13Lwhwx1Ua-25" value="" style="shape=flexArrow;endArrow=classic;startArrow=classic;html=1;rounded=0;" edge="1" parent="1">
          <mxGeometry width="100" height="100" relative="1" as="geometry">
            <mxPoint x="220" y="140" as="sourcePoint" />
            <mxPoint x="410" y="120" as="targetPoint" />
          </mxGeometry>
        </mxCell>
        <mxCell id="Ca4Y1HuICi13Lwhwx1Ua-29" value="SQL" style="shape=cylinder3;whiteSpace=wrap;html=1;boundedLbl=1;backgroundOutline=1;size=15;" vertex="1" parent="1">
          <mxGeometry x="660" y="80.67" width="60" height="80" as="geometry" />
        </mxCell>
        <mxCell id="Ca4Y1HuICi13Lwhwx1Ua-30" value="" style="shape=flexArrow;endArrow=classic;startArrow=classic;html=1;rounded=0;entryX=0;entryY=0;entryDx=0;entryDy=27.5;entryPerimeter=0;exitX=0.875;exitY=0.5;exitDx=0;exitDy=0;exitPerimeter=0;" edge="1" parent="1" source="Ca4Y1HuICi13Lwhwx1Ua-1" target="Ca4Y1HuICi13Lwhwx1Ua-29">
          <mxGeometry width="100" height="100" relative="1" as="geometry">
            <mxPoint x="290" y="290" as="sourcePoint" />
            <mxPoint x="390" y="190" as="targetPoint" />
          </mxGeometry>
        </mxCell>
        <mxCell id="Ca4Y1HuICi13Lwhwx1Ua-31" value="&lt;font style=&quot;font-size: 11px;&quot;&gt;Dispostivo movil&lt;/font&gt;" style="text;strokeColor=none;fillColor=none;html=1;fontSize=24;fontStyle=1;verticalAlign=middle;align=center;" vertex="1" parent="1">
          <mxGeometry x="152.5" y="200" width="95" height="20" as="geometry" />
        </mxCell>
        <mxCell id="Ca4Y1HuICi13Lwhwx1Ua-33" value="Firewal IO/OT" style="rounded=0;whiteSpace=wrap;html=1;" vertex="1" parent="1">
          <mxGeometry x="330" y="340" width="120" height="60" as="geometry" />
        </mxCell>
        <mxCell id="Ca4Y1HuICi13Lwhwx1Ua-34" value="" style="shape=flexArrow;endArrow=classic;startArrow=classic;html=1;rounded=0;" edge="1" parent="1">
          <mxGeometry width="100" height="100" relative="1" as="geometry">
            <mxPoint x="390" y="450" as="sourcePoint" />
            <mxPoint x="389.40999999999997" y="400" as="targetPoint" />
          </mxGeometry>
        </mxCell>
      </root>
    </mxGraphModel>
  </diagram>
</mxfile>
